<?xml version="1.0" standalone="no"?>
<!DOCTYPE svg PUBLIC "-//W3C//DTD SVG 20010904//EN"
 "http://www.w3.org/TR/2001/REC-SVG-20010904/DTD/svg10.dtd">
<svg version="1.0" xmlns="http://www.w3.org/2000/svg"
 width="548.000000pt" height="382.000000pt" viewBox="0 0 548.000000 382.000000"
 preserveAspectRatio="xMidYMid meet">
<metadata>
Created by potrace 1.16, written by Peter Selinger 2001-2019
</metadata>
<g transform="translate(0.000000,382.000000) scale(0.100000,-0.100000)"
fill="#000000" stroke="none">
<path d="M867 3776 c-59 -21 -106 -67 -137 -131 -23 -48 -27 -150 -7 -198 38
-89 129 -147 232 -147 75 0 128 24 177 78 45 50 55 69 54 107 -1 17 4 34 9 38
6 5 0 7 -12 4 -16 -4 -23 -1 -23 11 0 9 -10 26 -22 39 -32 34 -14 28 21 -8 18
-18 31 -25 32 -17 1 14 1 16 -5 51 -3 12 -5 25 -5 30 -1 4 -6 7 -12 7 -6 0 -7
-5 -2 -12 10 -17 12 -59 3 -53 -4 3 -10 18 -13 35 -4 16 -11 30 -17 30 -6 0
-9 -4 -5 -9 3 -5 1 -12 -4 -15 -5 -4 -8 2 -7 11 2 10 10 18 19 18 38 0 32 17
-30 80 -57 58 -164 80 -246 51z"/>
<path d="M2137 3706 c-50 -18 -62 -30 -88 -82 -20 -43 -21 -50 -9 -142 7 -53
17 -115 23 -137 10 -35 11 -37 15 -15 4 19 9 10 23 -40 11 -36 26 -87 35 -115
8 -27 21 -75 28 -105 8 -30 26 -93 41 -140 14 -47 42 -137 60 -200 43 -149 53
-180 71 -212 17 -32 18 -41 2 -32 -10 6 -10 5 -1 -8 7 -8 11 -17 8 -19 -2 -3
2 -29 10 -59 8 -30 17 -67 20 -81 5 -27 41 -152 52 -179 3 -8 7 -19 8 -25 16
-67 57 -200 70 -228 21 -45 94 -114 143 -134 48 -20 124 -22 187 -4 35 11 64
29 101 65 56 56 55 54 193 431 78 211 112 300 235 610 30 77 57 150 59 162 2
12 7 26 11 30 4 5 6 1 4 -7 -2 -8 2 -14 8 -13 7 1 10 -6 7 -17 -3 -12 0 -20 6
-20 7 0 10 -4 7 -8 -6 -9 17 -89 89 -312 23 -74 75 -238 114 -365 152 -487
165 -515 248 -551 79 -34 198 -6 246 58 30 38 90 178 82 187 -4 3 -10 -1 -15
-9 -5 -8 -11 -12 -12 -10 -6 8 -99 281 -111 325 -5 22 -13 42 -17 45 -4 3 -10
16 -14 30 -6 23 -6 23 9 -3 11 -18 22 -26 31 -23 9 3 12 1 9 -4 -3 -6 3 -10
14 -10 11 0 29 -10 40 -22 19 -19 23 -20 47 -8 31 17 38 8 49 -54 5 -36 7 -39
17 -21 11 19 11 19 19 0 7 -19 8 -18 8 3 1 12 7 22 14 23 6 0 3 4 -8 9 -19 8
-19 9 3 9 12 1 22 -5 22 -11 0 -7 5 -5 11 5 6 10 9 27 6 38 -3 10 -1 17 3 14
10 -6 30 26 30 47 0 9 -3 9 -10 -2 -8 -12 -10 -11 -10 6 0 14 6 21 15 20 15
-1 87 168 290 679 24 61 73 182 109 270 76 185 84 237 42 294 -31 42 -51 56
-98 69 -51 14 -119 -2 -151 -36 -14 -15 -63 -106 -108 -202 -45 -96 -108 -231
-140 -299 -33 -68 -59 -125 -59 -127 0 -2 -32 -70 -71 -151 -39 -82 -96 -199
-125 -261 -30 -62 -58 -111 -63 -108 -5 3 -30 61 -56 128 -26 68 -62 161 -80
208 -18 47 -36 95 -40 108 -4 12 -11 19 -17 16 -7 -4 -8 -2 -4 4 10 16 -4 63
-17 55 -5 -3 -7 -2 -4 4 10 16 -59 193 -75 193 -6 0 -5 -7 2 -15 10 -12 10
-19 2 -27 -9 -9 -12 -8 -12 3 0 8 -8 15 -18 16 -15 1 -18 -4 -14 -30 2 -23 1
-28 -6 -18 -6 8 -20 12 -37 9 -15 -3 -32 0 -40 8 -8 8 -18 14 -22 13 -4 -1
-22 -1 -39 0 -27 1 -33 6 -44 41 -15 46 -24 49 -52 18 -11 -13 -17 -17 -13
-10 8 15 -70 17 -80 2 -3 -5 -22 -10 -41 -10 -25 0 -34 -4 -35 -17 -1 -10 -6
-3 -11 15 -14 42 -44 43 -53 2 -4 -16 -11 -30 -15 -30 -5 0 -7 -7 -4 -15 5
-12 -3 -15 -38 -15 -24 0 -50 -6 -57 -12 -10 -11 -11 -9 -5 6 5 14 4 17 -5 11
-11 -6 -11 -3 0 16 11 21 11 23 -3 11 -23 -19 -50 -80 -42 -94 4 -6 3 -8 -3
-5 -10 6 -65 -90 -226 -391 -35 -66 -57 -84 -57 -46 0 9 -5 12 -12 8 -7 -4 -8
-3 -4 5 4 6 -53 146 -130 319 -75 169 -170 381 -210 471 -41 91 -85 177 -100
192 -14 15 -45 32 -69 38 -53 13 -51 13 -98 -3z"/>
<path d="M661 3322 c-7 -13 -6 -23 1 -30 9 -9 9 -12 -1 -12 -7 0 -11 -6 -8
-15 4 -8 2 -17 -3 -20 -5 -3 -8 -35 -6 -70 1 -35 0 -62 -4 -60 -3 2 -5 -17 -5
-41 1 -25 -2 -47 -7 -50 -11 -7 -8 -404 3 -404 5 0 8 -3 7 -7 -1 -5 1 -19 5
-33 3 -14 8 -54 11 -89 3 -44 9 -69 20 -77 21 -15 20 -28 -1 -20 -13 4 -12 1
5 -13 12 -11 20 -26 16 -34 -3 -8 2 -17 11 -21 11 -4 14 -2 8 6 -10 17 -11 48
-2 48 4 0 10 -6 12 -12 3 -8 6 -6 6 5 1 9 -6 17 -14 17 -13 0 -14 4 -4 21 8
15 8 19 0 15 -15 -10 -14 7 2 23 8 10 8 12 0 7 -8 -4 -14 17 -19 76 -4 46 -7
90 -5 98 4 22 18 33 30 25 8 -4 6 -11 -4 -21 -8 -9 -14 -25 -14 -37 1 -21 2
-21 6 -2 3 11 10 23 16 27 6 4 10 23 9 43 -2 26 1 36 9 33 7 -2 14 -11 17 -19
3 -11 2 -11 -7 1 -9 12 -11 11 -11 -7 0 -12 7 -23 17 -25 15 -3 15 -4 0 -19
-9 -9 -13 -19 -10 -23 11 -11 21 -6 26 12 4 15 5 15 6 0 0 -9 -3 -20 -9 -23
-19 -12 -11 -33 10 -28 20 5 24 13 20 46 -1 10 7 25 17 32 15 12 16 17 6 34
-11 17 -9 22 9 36 13 8 28 15 34 15 23 0 54 52 54 89 0 60 36 83 43 29 3 -18
4 8 3 59 0 50 2 95 7 99 4 4 7 -5 7 -19 0 -15 5 -27 10 -27 6 0 10 10 10 23 0
13 9 33 20 45 12 12 17 22 11 22 -5 0 -7 9 -4 21 4 13 11 18 22 15 11 -4 10
-2 -3 9 -17 13 -18 17 -6 28 10 9 11 9 6 0 -5 -8 -2 -11 7 -7 15 5 17 27 4 40
-15 15 -6 26 11 13 15 -12 15 -12 -1 7 -15 18 -16 22 -3 27 8 3 17 1 20 -6 3
-7 4 -3 3 8 -2 16 -9 20 -32 18 -108 -8 -174 -4 -230 15 -33 12 -56 21 -52 21
11 1 -82 81 -93 81 -5 0 -14 -8 -19 -18z"/>
<path d="M153 1303 c-12 -2 -36 -17 -53 -33 -25 -23 -30 -36 -30 -73 0 -54 24
-87 85 -116 l40 -19 -44 -18 c-34 -13 -47 -26 -62 -58 -17 -37 -19 -70 -19
-321 0 -290 6 -347 40 -365 10 -5 46 -10 79 -10 94 0 95 4 99 275 2 121 -1
269 -6 330 -9 109 -9 109 -46 141 -33 29 -35 33 -18 38 10 4 29 17 42 31 27
29 39 110 21 144 -21 38 -79 63 -128 54z"/>
<path d="M4884 1289 c-16 -18 -19 -40 -22 -166 l-4 -145 -26 32 c-22 25 -37
33 -74 37 -60 7 -100 -9 -134 -54 l-27 -36 -19 37 c-21 41 -50 56 -106 56 -81
0 -82 -5 -82 -382 0 -240 4 -329 13 -348 14 -27 53 -38 120 -31 66 6 71 23 77
272 6 265 6 264 143 279 80 9 98 22 108 82 3 24 7 -99 8 -272 1 -371 -2 -360
90 -360 44 0 65 5 85 21 25 20 26 24 26 118 0 85 3 102 21 125 38 49 57 34
125 -97 76 -147 87 -159 158 -165 48 -4 57 -2 80 21 15 15 26 37 26 53 0 15
-40 105 -90 200 -49 95 -90 178 -90 184 0 7 31 48 70 93 56 66 70 89 70 115 0
46 -14 68 -51 81 -65 22 -84 16 -141 -51 -29 -34 -77 -87 -105 -117 -44 -46
-55 -53 -63 -41 -7 10 -8 76 -4 190 9 252 -6 290 -112 290 -39 0 -55 -5 -70
-21z"/>
<path d="M1267 1056 c-100 -37 -177 -123 -208 -230 -17 -60 -21 -182 -9 -257
16 -94 46 -153 105 -208 64 -58 115 -79 231 -91 98 -11 99 -11 172 19 97 40
142 78 181 150 58 110 64 327 10 437 -31 66 -94 130 -156 160 -50 25 -70 28
-172 31 -82 2 -127 -1 -154 -11z m210 -177 c38 -14 81 -66 94 -114 17 -60 4
-188 -23 -238 -32 -57 -79 -87 -137 -87 -100 0 -152 69 -159 212 -4 76 -2 92
21 142 17 37 37 62 59 76 36 22 100 26 145 9z"/>
<path d="M3840 1060 c-69 -12 -114 -34 -160 -80 -104 -104 -140 -309 -83 -475
23 -66 37 -90 83 -136 76 -77 137 -99 270 -99 126 0 192 23 260 89 41 39 52
58 75 134 25 80 27 98 22 190 -13 233 -92 340 -274 372 -85 16 -125 17 -193 5z
m186 -191 c99 -61 119 -215 46 -352 -31 -57 -64 -77 -127 -77 -106 0 -165 79
-165 224 0 81 17 129 63 182 37 42 41 44 94 44 39 0 66 -6 89 -21z"/>
<path d="M883 1052 c-39 -6 -58 -45 -102 -213 -64 -245 -74 -280 -82 -285 -4
-2 -16 24 -27 58 -33 101 -70 228 -87 298 -30 117 -51 140 -128 140 -45 0 -76
-22 -90 -63 -12 -32 30 -199 88 -357 83 -225 125 -350 125 -372 0 -44 -28 -66
-105 -83 -47 -10 -65 -33 -65 -81 0 -35 5 -47 31 -68 56 -48 189 -29 256 36
35 34 57 89 166 423 36 110 82 247 102 305 53 158 55 164 55 191 0 48 -68 83
-137 71z"/>
<path d="M1879 1031 l-24 -19 4 -303 c3 -321 5 -332 53 -375 50 -46 89 -58
183 -59 93 0 132 12 181 57 21 19 21 19 57 -17 30 -30 42 -35 81 -35 36 0 53
6 70 23 l23 23 -3 338 c-2 295 -5 340 -19 356 -19 21 -90 34 -130 24 -48 -12
-55 -49 -55 -286 0 -196 -2 -216 -20 -246 -35 -57 -135 -82 -178 -44 -37 32
-45 79 -51 315 -6 225 -6 229 -30 248 -32 26 -110 26 -142 0z"/>
<path d="M2608 1039 c-33 -19 -38 -43 -27 -131 6 -45 24 -128 39 -183 16 -55
47 -164 69 -241 21 -78 44 -151 50 -163 23 -43 169 -54 198 -15 18 25 38 94
73 261 33 154 38 173 50 173 11 0 32 -65 36 -106 4 -53 56 -278 70 -306 24
-46 151 -66 192 -30 20 17 62 151 122 387 15 61 34 128 43 150 8 22 17 67 21
101 6 51 4 65 -12 83 -21 27 -97 40 -131 22 -29 -16 -37 -40 -72 -206 -29
-143 -57 -256 -64 -263 -5 -5 -19 52 -45 183 -52 267 -62 286 -159 293 -97 7
-115 -21 -151 -233 -25 -143 -41 -215 -50 -215 -10 0 -46 131 -71 257 -24 122
-45 168 -85 183 -32 13 -74 12 -96 -1z"/>
</g>
</svg>
